<?xml version="1.0" encoding="UTF-8" standalone="no"?>
<!-- Created with Inkscape (http://www.inkscape.org/) -->

<svg
   xmlns:dc="http://purl.org/dc/elements/1.1/"
   xmlns:cc="http://creativecommons.org/ns#"
   xmlns:rdf="http://www.w3.org/1999/02/22-rdf-syntax-ns#"
   xmlns:svg="http://www.w3.org/2000/svg"
   xmlns="http://www.w3.org/2000/svg"
   xmlns:sodipodi="http://sodipodi.sourceforge.net/DTD/sodipodi-0.dtd"
   xmlns:inkscape="http://www.inkscape.org/namespaces/inkscape"
   width="36.175949mm"
   height="49.269157mm"
   viewBox="0 0 128.1825 174.57575"
   id="svg5273"
   version="1.1"
   inkscape:version="0.91 r13725"
   inkscape:export-filename="C:\Users\RUBEN\Documents\GitHub\petsOficial\public\img\pets\perico-verde.png"
   inkscape:export-xdpi="180"
   inkscape:export-ydpi="180"
   sodipodi:docname="perico-cafe.svg">
  <defs
     id="defs5275" />
  <sodipodi:namedview
     id="base"
     pagecolor="#ffffff"
     bordercolor="#666666"
     borderopacity="1.0"
     inkscape:pageopacity="0.0"
     inkscape:pageshadow="2"
     inkscape:zoom="0.35"
     inkscape:cx="-365.19447"
     inkscape:cy="184.43074"
     inkscape:document-units="px"
     inkscape:current-layer="layer1"
     showgrid="false"
     fit-margin-top="0"
     fit-margin-left="0"
     fit-margin-right="0"
     fit-margin-bottom="0"
     inkscape:window-width="1600"
     inkscape:window-height="837"
     inkscape:window-x="-8"
     inkscape:window-y="-8"
     inkscape:window-maximized="1" />
  <metadata
     id="metadata5278">
    <rdf:RDF>
      <cc:Work
         rdf:about="">
        <dc:format>image/svg+xml</dc:format>
        <dc:type
           rdf:resource="http://purl.org/dc/dcmitype/StillImage" />
        <dc:title></dc:title>
      </cc:Work>
    </rdf:RDF>
  </metadata>
  <g
     inkscape:label="Capa 1"
     inkscape:groupmode="layer"
     id="layer1"
     transform="translate(-213.05161,-542.21719)">
    <g
       transform="matrix(1.25,0,0,-1.25,341.23411,641.87307)"
       id="g3484">
      <path
         inkscape:connector-curvature="0"
         id="path3486"
         style="fill:#68a284;fill-opacity:1;fill-rule:nonzero;stroke:none"
         d="m 0,0 c 0,-24.13 -22.953,-59.213 -51.271,-59.213 -28.319,0 -51.275,35.083 -51.275,59.213 0,24.132 22.956,43.693 51.275,43.693 C -22.953,43.693 0,24.132 0,0" />
    </g>
    <g
       transform="matrix(1.25,0,0,-1.25,276.12311,642.39669)"
       id="g3488">
      <path
         inkscape:connector-curvature="0"
         id="path3490"
         style="fill:#a7ab52;fill-opacity:1;fill-rule:nonzero;stroke:none"
         d="m 0,0 c -0.382,0.011 -0.75,0.049 -1.116,0.101 -24.024,0.97 -36.927,19.665 -36.927,19.665 -3.533,-10.631 -3.548,-22.592 -3.548,-22.592 0.556,-22.955 19.323,-56.691 42.409,-56.691 l 0,59.57 C 0.638,0.042 0.471,0 0.293,0 L 0,0 Z" />
    </g>
    <g
       transform="matrix(1.25,0,0,-1.25,240.58471,575.70732)"
       id="g3492">
      <path
         inkscape:connector-curvature="0"
         id="path3494"
         style="fill:#d65771;fill-opacity:1;fill-rule:nonzero;stroke:none"
         d="m 0,0 -0.013,0.018 c 0,0 0.002,-0.086 0.002,-0.219 -0.061,-0.788 -0.118,-1.579 -0.118,-2.384 0,-0.244 0.025,-0.484 0.029,-0.729 -0.166,-2.961 -0.605,-7.585 -1.892,-12.461 -0.908,-3.42 -2.227,-6.964 -4.179,-10.146 -1.418,-2.318 -2.542,-4.951 -3.441,-7.665 0,0 12.903,-18.694 36.926,-19.665 l 0.004,0 c 0.364,-0.052 0.732,-0.09 1.113,-0.101 l 0.293,0 c 0.177,0 0.344,0.042 0.525,0.053 l 0,23.062 0,57.029 C 13.896,26.792 1.311,15.012 0,0" />
    </g>
    <g
       transform="matrix(1.25,0,0,-1.25,325.93261,618.27319)"
       id="g3496">
      <path
         inkscape:connector-curvature="0"
         id="path3498"
         style="fill:#c5c85e;fill-opacity:1;fill-rule:nonzero;stroke:none"
         d="m 0,0 c 0,0 -13.763,-19.246 -39.029,-19.246 l 0,-59.569 c 23.104,0 41.882,33.766 42.406,56.742 0,0 -0.013,11.576 -3.377,22.073" />
    </g>
    <g
       transform="matrix(1.25,0,0,-1.25,321.45631,608.10844)"
       id="g3500">
      <path
         inkscape:connector-curvature="0"
         id="path3502"
         style="fill:#f08787;fill-opacity:1;fill-rule:nonzero;stroke:none"
         d="m 0,0 c -1.782,2.927 -3.046,6.157 -3.941,9.313 -1.532,5.39 -1.995,10.572 -2.144,13.667 0,0.12 0.014,0.238 0.014,0.356 0,0.535 -0.053,1.06 -0.08,1.588 -0.012,0.633 -0.003,1.014 -0.003,1.014 L -6.199,25.872 C -7.49,40.91 -20.079,52.713 -35.448,52.713 l 0,-57.029 0,-23.062 c 25.266,0 39.029,19.246 39.029,19.246 C 2.66,-5.256 1.497,-2.457 0,0" />
    </g>
    <g
       transform="matrix(1.25,0,0,-1.25,272.07391,571.00507)"
       id="g3504">
      <path
         inkscape:connector-curvature="0"
         id="path3506"
         style="fill:#caba9f;fill-opacity:1;fill-rule:nonzero;stroke:none"
         d="M 0,0 -5.321,-3.51 C -7.46,-4.923 -8.137,-7.88 -6.825,-10.083 L 1.504,-24.07 c 0.657,-1.107 1.521,-1.659 2.387,-1.659 l 0,26.791 C 2.475,1.062 1.07,0.708 0,0" />
    </g>
    <g
       transform="matrix(1.25,0,0,-1.25,279.91941,601.09307)"
       id="g3508">
      <path
         inkscape:connector-curvature="0"
         id="path3510"
         style="fill:#ddd2c0;fill-opacity:1;fill-rule:nonzero;stroke:none"
         d="m 0,0 8.33,13.987 c 1.315,2.203 0.636,5.16 -1.504,6.574 L 1.504,24.07 c -1.07,0.708 -2.481,1.063 -3.89,1.063 l 0,-26.791 c 0.865,0 1.731,0.552 2.386,1.658" />
    </g>
    <g
       transform="matrix(1.25,0,0,-1.25,247.80761,567.51144)"
       id="g3512">
      <path
         inkscape:connector-curvature="0"
         id="path3514"
         style="fill:#caba9f;fill-opacity:1;fill-rule:nonzero;stroke:none"
         d="m 0,0 c 0,-4.495 2.252,-8.139 5.032,-8.139 2.78,0 5.032,3.644 5.032,8.139 0,4.494 -2.252,8.139 -5.032,8.139 C 2.252,8.139 0,4.494 0,0" />
    </g>
    <g
       transform="matrix(1.25,0,0,-1.25,249.92791,567.51144)"
       id="g3516">
      <path
         inkscape:connector-curvature="0"
         id="path3518"
         style="fill:#07171b;fill-opacity:1;fill-rule:nonzero;stroke:none"
         d="m 0,0 c 0,-2.979 1.493,-5.394 3.336,-5.394 1.842,0 3.335,2.415 3.335,5.394 0,2.979 -1.493,5.393 -3.335,5.393 C 1.493,5.393 0,2.979 0,0" />
    </g>
    <g
       transform="matrix(1.25,0,0,-1.25,254.39571,564.89794)"
       id="g3520">
      <path
         inkscape:connector-curvature="0"
         id="path3522"
         style="fill:#ffffff;fill-opacity:1;fill-rule:nonzero;stroke:none"
         d="m 0,0 c 0,-0.799 -0.65,-1.448 -1.449,-1.448 -0.8,0 -1.448,0.649 -1.448,1.448 0,0.801 0.648,1.448 1.448,1.448 C -0.65,1.448 0,0.801 0,0" />
    </g>
    <g
       transform="matrix(1.25,0,0,-1.25,293.89891,567.51144)"
       id="g3524">
      <path
         inkscape:connector-curvature="0"
         id="path3526"
         style="fill:#ddd2c0;fill-opacity:1;fill-rule:nonzero;stroke:none"
         d="m 0,0 c 0,-4.495 2.254,-8.139 5.033,-8.139 2.78,0 5.033,3.644 5.033,8.139 0,4.494 -2.253,8.139 -5.033,8.139 C 2.254,8.139 0,4.494 0,0" />
    </g>
    <g
       transform="matrix(1.25,0,0,-1.25,296.02171,567.51144)"
       id="g3528">
      <path
         inkscape:connector-curvature="0"
         id="path3530"
         style="fill:#07171b;fill-opacity:1;fill-rule:nonzero;stroke:none"
         d="m 0,0 c 0,-2.979 1.493,-5.394 3.335,-5.394 1.842,0 3.336,2.415 3.336,5.394 0,2.979 -1.494,5.393 -3.336,5.393 C 1.493,5.393 0,2.979 0,0" />
    </g>
    <g
       transform="matrix(1.25,0,0,-1.25,300.48831,564.89794)"
       id="g3532">
      <path
         inkscape:connector-curvature="0"
         id="path3534"
         style="fill:#ffffff;fill-opacity:1;fill-rule:nonzero;stroke:none"
         d="m 0,0 c 0,-0.799 -0.65,-1.448 -1.449,-1.448 -0.8,0 -1.447,0.649 -1.447,1.448 0,0.801 0.647,1.448 1.447,1.448 C -0.65,1.448 0,0.801 0,0" />
    </g>
    <g
       transform="matrix(1.25,0,0,-1.25,256.16941,713.05594)"
       id="g3536">
      <path
         inkscape:connector-curvature="0"
         id="path3538"
         style="fill:#caba9f;fill-opacity:1;fill-rule:nonzero;stroke:none"
         d="m 0,0 c 0,-1.65 -1.338,-2.989 -2.989,-2.989 -1.652,0 -2.99,1.339 -2.99,2.989 l 0,5.396 c 0,1.65 1.338,2.989 2.99,2.989 C -1.338,8.385 0,7.046 0,5.396 L 0,0 Z" />
    </g>
    <g
       transform="matrix(1.25,0,0,-1.25,263.64621,713.05594)"
       id="g3540">
      <path
         inkscape:connector-curvature="0"
         id="path3542"
         style="fill:#caba9f;fill-opacity:1;fill-rule:nonzero;stroke:none"
         d="m 0,0 c 0,-1.65 -1.339,-2.989 -2.989,-2.989 -1.653,0 -2.992,1.339 -2.992,2.989 l 0,5.396 c 0,1.65 1.339,2.989 2.992,2.989 C -1.339,8.385 0,7.046 0,5.396 L 0,0 Z" />
    </g>
    <g
       transform="matrix(1.25,0,0,-1.25,271.12311,713.05594)"
       id="g3544">
      <path
         inkscape:connector-curvature="0"
         id="path3546"
         style="fill:#caba9f;fill-opacity:1;fill-rule:nonzero;stroke:none"
         d="m 0,0 c 0,-1.65 -1.339,-2.989 -2.99,-2.989 -1.653,0 -2.991,1.339 -2.991,2.989 l 0,5.396 c 0,1.65 1.338,2.989 2.991,2.989 C -1.339,8.385 0,7.046 0,5.396 L 0,0 Z" />
    </g>
    <g
       transform="matrix(1.25,0,0,-1.25,290.64081,713.05594)"
       id="g3548">
      <path
         inkscape:connector-curvature="0"
         id="path3550"
         style="fill:#ddd2c0;fill-opacity:1;fill-rule:nonzero;stroke:none"
         d="m 0,0 c 0,-1.65 -1.338,-2.989 -2.989,-2.989 -1.653,0 -2.99,1.339 -2.99,2.989 l 0,5.396 c 0,1.65 1.337,2.989 2.99,2.989 C -1.338,8.385 0,7.046 0,5.396 L 0,0 Z" />
    </g>
    <g
       transform="matrix(1.25,0,0,-1.25,298.11771,713.05594)"
       id="g3552">
      <path
         inkscape:connector-curvature="0"
         id="path3554"
         style="fill:#ddd2c0;fill-opacity:1;fill-rule:nonzero;stroke:none"
         d="m 0,0 c 0,-1.65 -1.339,-2.989 -2.989,-2.989 -1.654,0 -2.992,1.339 -2.992,2.989 l 0,5.396 c 0,1.65 1.338,2.989 2.992,2.989 C -1.339,8.385 0,7.046 0,5.396 L 0,0 Z" />
    </g>
    <g
       transform="matrix(1.25,0,0,-1.25,305.59441,713.05594)"
       id="g3556">
      <path
         inkscape:connector-curvature="0"
         id="path3558"
         style="fill:#ddd2c0;fill-opacity:1;fill-rule:nonzero;stroke:none"
         d="m 0,0 c 0,-1.65 -1.339,-2.989 -2.991,-2.989 -1.652,0 -2.99,1.339 -2.99,2.989 l 0,5.396 c 0,1.65 1.338,2.989 2.99,2.989 C -1.339,8.385 0,7.046 0,5.396 L 0,0 Z" />
    </g>
  </g>
</svg>
