<?xml version="1.0" encoding="UTF-8" standalone="no"?>
<!-- Created with Inkscape (http://www.inkscape.org/) -->

<svg
   xmlns:dc="http://purl.org/dc/elements/1.1/"
   xmlns:cc="http://creativecommons.org/ns#"
   xmlns:rdf="http://www.w3.org/1999/02/22-rdf-syntax-ns#"
   xmlns:svg="http://www.w3.org/2000/svg"
   xmlns="http://www.w3.org/2000/svg"
   xmlns:sodipodi="http://sodipodi.sourceforge.net/DTD/sodipodi-0.dtd"
   xmlns:inkscape="http://www.inkscape.org/namespaces/inkscape"
   width="175.48587"
   height="181.51108"
   viewBox="0 0 175.48587 181.51107"
   id="svg5072"
   version="1.1"
   inkscape:version="0.91 r13725"
   sodipodi:docname="perro-cafe.svg"
   inkscape:export-filename="C:\Users\RUBEN\Documents\GitHub\petsOficial\resources\perro-cafe.png"
   inkscape:export-xdpi="180.0145"
   inkscape:export-ydpi="180.0145">
  <defs
     id="defs5074">
    <clipPath
       id="clipPath3744"
       clipPathUnits="userSpaceOnUse">
      <path
         inkscape:connector-curvature="0"
         id="path3746"
         d="m 581.149,529.277 66.939,0 0,-41.784 -66.939,0 0,41.784 z" />
    </clipPath>
  </defs>
  <sodipodi:namedview
     id="base"
     pagecolor="#ffffff"
     bordercolor="#666666"
     borderopacity="1.0"
     inkscape:pageopacity="0.0"
     inkscape:pageshadow="2"
     inkscape:zoom="0.98994949"
     inkscape:cx="100.16507"
     inkscape:cy="145.62177"
     inkscape:document-units="px"
     inkscape:current-layer="layer1"
     showgrid="false"
     fit-margin-top="0"
     fit-margin-left="0"
     fit-margin-right="0"
     fit-margin-bottom="0"
     units="px"
     inkscape:window-width="1600"
     inkscape:window-height="837"
     inkscape:window-x="-8"
     inkscape:window-y="-8"
     inkscape:window-maximized="1" />
  <metadata
     id="metadata5077">
    <rdf:RDF>
      <cc:Work
         rdf:about="">
        <dc:format>image/svg+xml</dc:format>
        <dc:type
           rdf:resource="http://purl.org/dc/dcmitype/StillImage" />
        <dc:title></dc:title>
      </cc:Work>
    </rdf:RDF>
  </metadata>
  <g
     inkscape:label="Capa 1"
     inkscape:groupmode="layer"
     id="layer1"
     transform="translate(-343.68564,-444.4638)">
    <path
       inkscape:connector-curvature="0"
       id="path3728"
       style="fill:#8e6451;fill-opacity:1;fill-rule:nonzero;stroke:none"
       d="m 425.82148,618.19789 -23.78875,0 0,-25.76375 23.78875,0 0,25.76375 z" />
    <path
       inkscape:connector-curvature="0"
       id="path3730"
       style="fill:#b68472;fill-opacity:1;fill-rule:nonzero;stroke:none"
       d="m 460.93773,618.19789 -23.79375,0 0,-25.76375 23.79375,0 0,25.76375 z" />
    <g
       transform="matrix(1.25,0,0,-1.25,413.92183,609.20114)"
       id="g3732">
      <path
         inkscape:connector-curvature="0"
         id="path3734"
         style="fill:#8e6451;fill-opacity:1;fill-rule:nonzero;stroke:none"
         d="m 0,0 c -7.407,0 -13.411,-6.01 -13.411,-13.419 l 26.832,0 C 13.421,-6.01 7.411,0 0,0" />
    </g>
    <g
       transform="matrix(1.25,0,0,-1.25,449.04383,609.20114)"
       id="g3736">
      <path
         inkscape:connector-curvature="0"
         id="path3738"
         style="fill:#b68472;fill-opacity:1;fill-rule:nonzero;stroke:none"
         d="m 0,0 c -7.41,0 -13.419,-6.01 -13.419,-13.419 l 26.832,0 C 13.413,-6.01 7.403,0 0,0" />
    </g>
    <g
       transform="matrix(1.25,0,0,-1.25,-336.68852,1197.8504)"
       id="g3740">
      <g
         id="g3742" />
      <g
         id="g3748">
        <g
           style="opacity:0.38999903"
           id="g3750"
           clip-path="url(#clipPath3744)">
          <g
             id="g3752"
             transform="translate(614.6201,487.4927)">
            <path
               inkscape:connector-curvature="0"
               id="path3754"
               style="fill:#c6ccd6;fill-opacity:1;fill-rule:nonzero;stroke:none"
               d="M 0,0 C 15.84,0 29.2,8.032 33.468,19.034 29.2,33.741 15.84,41.784 0,41.784 c -15.846,0 -29.204,-8.043 -33.471,-22.75 C -29.204,8.032 -15.846,0 0,0" />
          </g>
        </g>
      </g>
    </g>
    <g
       transform="matrix(1.25,0,0,-1.25,431.58663,588.48452)"
       id="g3756">
      <path
         inkscape:connector-curvature="0"
         id="path3758"
         style="fill:#8e6451;fill-opacity:1;fill-rule:nonzero;stroke:none"
         d="M 0,0 C 15.84,0 29.2,8.032 33.468,19.034 29.2,33.741 15.84,41.784 0,41.784 c -15.846,0 -29.204,-8.043 -33.471,-22.75 C -29.204,8.032 -15.846,0 0,0" />
    </g>
    <g
       transform="matrix(1.25,0,0,-1.25,389.74823,564.69177)"
       id="g3760">
      <path
         inkscape:connector-curvature="0"
         id="path3762"
         style="fill:#8e6451;fill-opacity:1;fill-rule:nonzero;stroke:none"
         d="m 0,0 c -0.926,-3.191 -1.444,-6.686 -1.444,-10.494 0,-14.665 15.632,-26.555 34.915,-26.555 l 0,18.015 C 17.625,-19.034 4.267,-11.002 0,0" />
    </g>
    <g
       transform="matrix(1.25,0,0,-1.25,473.31883,564.69177)"
       id="g3764">
      <path
         inkscape:connector-curvature="0"
         id="path3766"
         style="fill:#b68472;fill-opacity:1;fill-rule:nonzero;stroke:none"
         d="m 0,0 c 0.93,-3.191 1.446,-6.686 1.446,-10.494 0,-14.665 -15.631,-26.555 -34.916,-26.555 l 0,18.015 c 15.845,0 29.201,8.032 33.47,19.034" />
    </g>
    <g
       transform="matrix(1.25,0,0,-1.25,396.35103,468.76288)"
       id="g3768">
      <path
         inkscape:connector-curvature="0"
         id="path3770"
         style="fill:#723e2b;fill-opacity:1;fill-rule:nonzero;stroke:none"
         d="M 0,0 C -1.521,1.603 -3.544,3.413 -5.267,4.397 L -5.838,4.716 C -5.935,4.317 -6.164,3.527 -6.339,2.603 -6.643,0.682 -6.612,-1.296 -6.562,-4 c 0.056,-2.673 0.09,-5.932 -0.168,-9.271 -0.247,-3.346 -0.758,-6.75 -1.462,-10.033 -1.421,-6.59 -3.537,-12.746 -5.891,-18.616 l -0.14,-0.351 c -2.976,-7.417 -11.402,-11.019 -18.821,-8.044 -7.418,2.974 -11.019,11.401 -8.045,18.82 0.505,1.262 1.215,2.465 2.005,3.493 3.168,4.076 6.027,8.212 8.293,12.403 1.135,2.104 2.11,4.208 2.949,6.45 0.852,2.246 1.528,4.65 2.3,7.622 0.768,2.934 1.777,6.609 3.498,10.021 0.837,1.732 1.819,3.545 3.382,5.466 0.787,0.952 1.741,1.938 2.972,2.855 1.224,0.907 2.75,1.741 4.466,2.193 1.707,0.471 3.498,0.532 5.04,0.3 1.553,-0.227 2.864,-0.704 3.986,-1.235 2.225,-1.09 3.772,-2.394 5.115,-3.685 1.328,-1.3 2.426,-2.625 3.419,-3.973 C 7.345,9.034 8.168,7.772 9.088,6.171 10.602,3.539 9.695,0.179 7.062,-1.336 4.816,-2.628 2.036,-2.156 0.332,-0.353 L 0,0 Z" />
    </g>
    <g
       transform="matrix(1.25,0,0,-1.25,466.50613,468.76288)"
       id="g3772">
      <path
         inkscape:connector-curvature="0"
         id="path3774"
         style="fill:#723e2b;fill-opacity:1;fill-rule:nonzero;stroke:none"
         d="m 0,0 c 1.519,1.603 3.544,3.413 5.267,4.397 l 0.57,0.319 C 5.935,4.317 6.166,3.527 6.339,2.603 6.644,0.682 6.613,-1.296 6.563,-4 6.507,-6.673 6.472,-9.932 6.729,-13.271 c 0.248,-3.346 0.757,-6.75 1.463,-10.033 1.419,-6.59 3.536,-12.746 5.892,-18.616 l 0.14,-0.351 c 2.975,-7.417 11.402,-11.019 18.819,-8.044 7.419,2.974 11.02,11.401 8.046,18.82 -0.507,1.262 -1.215,2.465 -2.006,3.493 -3.167,4.076 -6.025,8.212 -8.291,12.403 -1.134,2.104 -2.111,4.208 -2.951,6.45 -0.849,2.246 -1.526,4.65 -2.3,7.622 -0.767,2.934 -1.775,6.609 -3.497,10.021 -0.837,1.732 -1.818,3.545 -3.381,5.466 -0.786,0.952 -1.74,1.938 -2.972,2.855 -1.226,0.907 -2.75,1.741 -4.468,2.193 -1.705,0.471 -3.498,0.532 -5.038,0.3 C 4.63,19.081 3.322,18.604 2.2,18.073 c -2.224,-1.09 -3.772,-2.394 -5.115,-3.685 -1.328,-1.3 -2.428,-2.625 -3.419,-3.973 -1.013,-1.381 -1.833,-2.643 -2.755,-4.244 -1.513,-2.632 -0.606,-5.992 2.027,-7.507 2.247,-1.292 5.027,-0.82 6.732,0.983 L 0,0 Z" />
    </g>
    <g
       transform="matrix(1.25,0,0,-1.25,479.36863,499.75038)"
       id="g3776">
      <path
         inkscape:connector-curvature="0"
         id="path3778"
         style="fill:#b68472;fill-opacity:1;fill-rule:nonzero;stroke:none"
         d="m 0,0 c -0.643,3.455 -2.213,10.32 -2.213,10.32 -2.972,16.342 -17.359,28.969 -36.022,28.969 l 0,-103.467 c 24.646,0 42.403,17.125 42.403,38.252 C 4.168,-15.91 1.76,-9.486 0,0" />
    </g>
    <g
       transform="matrix(1.25,0,0,-1.25,383.80953,499.75038)"
       id="g3780">
      <path
         inkscape:connector-curvature="0"
         id="path3782"
         style="fill:#8e6451;fill-opacity:1;fill-rule:nonzero;stroke:none"
         d="m 0,0 c 0.639,3.455 2.205,10.32 2.205,10.32 2.973,16.342 17.362,28.969 36.031,28.969 l 0,-103.467 c -24.65,0 -42.405,17.125 -42.405,38.252 0,10.016 2.406,16.44 4.169,25.926" />
    </g>
    <path
       inkscape:connector-curvature="0"
       id="path3784"
       style="fill:#3c1312;fill-opacity:1;fill-rule:nonzero;stroke:none"
       d="m 432.12898,573.38539 -1.9125,0 0,-11.01625 1.9125,0 0,11.01625 z" />
    <g
       transform="matrix(1.25,0,0,-1.25,459.54923,543.33688)"
       id="g3786">
      <path
         inkscape:connector-curvature="0"
         id="path3788"
         style="fill:#723e2b;fill-opacity:1;fill-rule:nonzero;stroke:none"
         d="m 0,0 c 0,-8.41 -10.01,-15.227 -22.355,-15.227 -12.354,0 -22.364,6.817 -22.364,15.227 0,8.41 10.01,15.228 22.364,15.228 C -10.01,15.228 0,8.41 0,0" />
    </g>
    <g
       transform="matrix(1.25,0,0,-1.25,453.30903,545.24852)"
       id="g3790">
      <path
         inkscape:connector-curvature="0"
         id="path3792"
         style="fill:#faedeb;fill-opacity:1;fill-rule:nonzero;stroke:none"
         d="m 0,0 c -0.533,0 -1.051,0.279 -1.331,0.777 -2.939,5.198 -10.23,7.049 -10.304,7.068 -0.82,0.201 -1.32,1.028 -1.118,1.849 0.202,0.82 1.033,1.324 1.851,1.117 0.351,-0.086 8.65,-2.196 12.233,-8.529 C 1.746,1.547 1.486,0.614 0.751,0.199 0.515,0.064 0.255,0 0,0" />
    </g>
    <g
       transform="matrix(1.25,0,0,-1.25,430.98113,534.10826)"
       id="g3794">
      <path
         inkscape:connector-curvature="0"
         id="path3796"
         style="fill:#faedeb;fill-opacity:1;fill-rule:nonzero;stroke:none"
         d="m 0,0 -1.204,0 c -0.847,0 -1.531,0.685 -1.531,1.528 0,0.845 0.684,1.531 1.531,1.531 L 0,3.059 C 0.845,3.059 1.528,2.373 1.528,1.528 1.528,0.685 0.845,0 0,0" />
    </g>
    <g
       transform="matrix(1.25,0,0,-1.25,430.69803,575.29602)"
       id="g3798">
      <path
         inkscape:connector-curvature="0"
         id="path3800"
         style="fill:#411611;fill-opacity:1;fill-rule:nonzero;stroke:none"
         d="m 0,0 c -8.294,0 -11.63,3.14 -11.767,3.272 -0.304,0.293 -0.31,0.779 -0.019,1.081 0.294,0.301 0.773,0.312 1.078,0.021 C -10.677,4.345 -7.61,1.528 0,1.528 c 6.99,0 10.727,2.868 10.763,2.896 0.335,0.256 0.813,0.202 1.074,-0.13 C 12.095,3.96 12.038,3.481 11.706,3.22 11.539,3.088 7.513,0 0,0" />
    </g>
    <g
       transform="matrix(1.25,0,0,-1.25,463.80713,502.03801)"
       id="g3802">
      <path
         inkscape:connector-curvature="0"
         id="path3804"
         style="fill:#411611;fill-opacity:1;fill-rule:nonzero;stroke:none"
         d="m 0,0 c 0,-3.878 -2.491,-7.02 -5.569,-7.02 -3.079,0 -5.573,3.142 -5.573,7.02 0,3.876 2.494,7.019 5.573,7.019 C -2.491,7.019 0,3.876 0,0" />
    </g>
    <g
       transform="matrix(1.25,0,0,-1.25,413.08933,502.03801)"
       id="g3806">
      <path
         inkscape:connector-curvature="0"
         id="path3808"
         style="fill:#411611;fill-opacity:1;fill-rule:nonzero;stroke:none"
         d="m 0,0 c 0,-3.878 -2.497,-7.02 -5.573,-7.02 -3.08,0 -5.569,3.142 -5.569,7.02 0,3.876 2.489,7.019 5.569,7.019 C -2.497,7.019 0,3.876 0,0" />
    </g>
    <g
       transform="matrix(1.25,0,0,-1.25,406.12403,498.07313)"
       id="g3810">
      <path
         inkscape:connector-curvature="0"
         id="path3812"
         style="fill:#ffffff;fill-opacity:1;fill-rule:nonzero;stroke:none"
         d="M 0,0 C 0,-1.177 0.895,-2.131 2,-2.131 3.109,-2.131 4.004,-1.177 4.004,0 4.004,1.177 3.109,2.131 2,2.131 0.895,2.131 0,1.177 0,0" />
    </g>
    <g
       transform="matrix(1.25,0,0,-1.25,457.04813,498.07313)"
       id="g3814">
      <path
         inkscape:connector-curvature="0"
         id="path3816"
         style="fill:#ffffff;fill-opacity:1;fill-rule:nonzero;stroke:none"
         d="m 0,0 c 0,-1.177 0.894,-2.131 2.001,-2.131 1.105,0 2.002,0.954 2.002,2.131 0,1.177 -0.897,2.131 -2.002,2.131 C 0.894,2.131 0,1.177 0,0" />
    </g>
  </g>
</svg>
